<?xml version="1.0" encoding="UTF-8" ?>
<svg version="1.1" width="16" height="16" xmlns="http://www.w3.org/2000/svg" shape-rendering="crispEdges">
<rect x="7" y="1" width="1" height="1" fill="#BD5A17" />
<rect x="6" y="2" width="1" height="1" fill="#BD5A17" />
<rect x="7" y="2" width="1" height="5" fill="#DF7126" />
<rect x="8" y="2" width="1" height="3" fill="#BD5A17" />
<rect x="11" y="2" width="1" height="1" fill="#BD5A17" />
<rect x="12" y="2" width="1" height="1" fill="#F2853D" />
<rect x="5" y="3" width="1" height="1" fill="#BD5A17" />
<rect x="6" y="3" width="1" height="2" fill="#DF7126" />
<rect x="11" y="3" width="1" height="1" fill="#FAF369" />
<rect x="4" y="4" width="1" height="3" fill="#BD5A17" />
<rect x="5" y="4" width="1" height="4" fill="#DF7126" />
<rect x="6" y="5" width="1" height="3" fill="#F2853D" />
<rect x="8" y="5" width="1" height="3" fill="#DF7126" />
<rect x="9" y="5" width="1" height="2" fill="#BD5A17" />
<rect x="11" y="6" width="1" height="1" fill="#BD5A17" />
<rect x="3" y="7" width="1" height="2" fill="#BD5A17" />
<rect x="4" y="7" width="1" height="3" fill="#DF7126" />
<rect x="7" y="7" width="1" height="2" fill="#F2853D" />
<rect x="9" y="7" width="1" height="2" fill="#DF7126" />
<rect x="10" y="7" width="1" height="1" fill="#BD5A17" />
<rect x="11" y="7" width="1" height="3" fill="#DF7126" />
<rect x="12" y="7" width="1" height="2" fill="#BD5A17" />
<rect x="5" y="8" width="1" height="3" fill="#F2853D" />
<rect x="6" y="8" width="1" height="2" fill="#FC7C26" />
<rect x="8" y="8" width="1" height="2" fill="#F2853D" />
<rect x="10" y="8" width="1" height="1" fill="#DF7126" />
<rect x="2" y="9" width="1" height="4" fill="#BD5A17" />
<rect x="3" y="9" width="1" height="4" fill="#DF7126" />
<rect x="7" y="9" width="1" height="1" fill="#FC7C26" />
<rect x="9" y="9" width="2" height="1" fill="#F2853D" />
<rect x="12" y="9" width="1" height="4" fill="#DF7126" />
<rect x="13" y="9" width="1" height="4" fill="#BD5A17" />
<rect x="4" y="10" width="1" height="1" fill="#E9843F" />
<rect x="6" y="10" width="2" height="4" fill="#FAF369" />
<rect x="8" y="10" width="2" height="1" fill="#FC7C26" />
<rect x="10" y="10" width="2" height="1" fill="#F2853D" />
<rect x="4" y="11" width="1" height="2" fill="#F2853D" />
<rect x="5" y="11" width="1" height="2" fill="#FAF369" />
<rect x="8" y="11" width="1" height="4" fill="#FAF369" />
<rect x="9" y="11" width="2" height="1" fill="#FC7C26" />
<rect x="11" y="11" width="1" height="1" fill="#F2853D" />
<rect x="9" y="12" width="1" height="2" fill="#FAF369" />
<rect x="10" y="12" width="1" height="2" fill="#F2853D" />
<rect x="11" y="12" width="1" height="2" fill="#DF7126" />
<rect x="3" y="13" width="1" height="1" fill="#BD5A17" />
<rect x="4" y="13" width="1" height="1" fill="#DF7126" />
<rect x="5" y="13" width="1" height="1" fill="#F2853D" />
<rect x="12" y="13" width="1" height="1" fill="#BD5A17" />
<rect x="4" y="14" width="1" height="1" fill="#BD5A17" />
<rect x="5" y="14" width="1" height="1" fill="#DF7126" />
<rect x="6" y="14" width="1" height="1" fill="#F2853D" />
<rect x="7" y="14" width="1" height="1" fill="#FAF369" />
<rect x="9" y="14" width="1" height="1" fill="#F2853D" />
<rect x="10" y="14" width="1" height="1" fill="#DF7126" />
<rect x="11" y="14" width="1" height="1" fill="#BD5A17" />
<rect x="5" y="15" width="6" height="1" fill="#BD5A17" />
</svg>